<svg id="Layer_1" data-name="Layer 1" xmlns="http://www.w3.org/2000/svg" viewBox="0 0 1232.85 47.97"><defs><style>.cls-1{stroke:#000;stroke-miterlimit:10;}</style></defs><title>ambulance-stones</title><path class="cls-1" d="M615.9,360.77c-5.41,9-2.28,21.68,5.11,24.26,10.93,3.82,35.51-13,31.54-24.26-2.17-6.17-13.17-11.54-23-9.7A20.28,20.28,0,0,0,615.9,360.77Z" transform="translate(-82.39 -350.2)"/><path class="cls-1" d="M576,364.68c-6.84,2.33-13.05,9.95-12.14,14.22,1.34,6.31,18.78,7.79,23.92.53,2.81-4,2.32-11.08-1.89-14.12C582.12,362.59,577.05,364.31,576,364.68Z" transform="translate(-82.39 -350.2)"/><path class="cls-1" d="M260.75,370.48c-4.19,1.4-8,6.06-7.4,8.69.86,3.9,11.56,4.88,14.69.44,1.71-2.43,1.38-6.81-1.22-8.7C264.51,369.22,261.41,370.26,260.75,370.48Z" transform="translate(-82.39 -350.2)"/><path class="cls-1" d="M1020.1,375.57c-4.2,1.38-8,6-7.44,8.65.84,3.9,11.54,4.94,14.69.52,1.72-2.42,1.41-6.81-1.18-8.71C1023.86,374.33,1020.76,375.35,1020.1,375.57Z" transform="translate(-82.39 -350.2)"/><path class="cls-1" d="M1262.22,372.86c-5.41,9-2.28,21.68,5.11,24.26,10.93,3.82,35.5-13,31.54-24.26-2.17-6.17-13.17-11.54-23-9.7A20.28,20.28,0,0,0,1262.22,372.86Z" transform="translate(-82.39 -350.2)"/><path class="cls-1" d="M1009.3,366.68c-6.85,2.33-13,9.95-12.14,14.22,1.34,6.31,18.78,7.79,23.92.53,2.81-4,2.32-11.08-1.89-14.12C1015.44,364.59,1010.37,366.31,1009.3,366.68Z" transform="translate(-82.39 -350.2)"/><path class="cls-1" d="M235.31,364.57c-4.19,1.4-8,6.06-7.4,8.69.86,3.9,11.56,4.88,14.69.44,1.71-2.43,1.38-6.81-1.22-8.7C239.07,363.31,236,364.35,235.31,364.57Z" transform="translate(-82.39 -350.2)"/><path class="cls-1" d="M1306.42,375.57c-4.2,1.38-8,6-7.44,8.65.84,3.9,11.54,4.94,14.68.52,1.72-2.42,1.42-6.81-1.17-8.71C1310.18,374.33,1307.08,375.35,1306.42,375.57Z" transform="translate(-82.39 -350.2)"/><path class="cls-1" d="M87.56,359.79c-6.83,7.85-5.88,20.92,1,24.83,10.12,5.78,37.12-6.19,35.11-18-1.1-6.48-11-13.8-21-13.82A19.85,19.85,0,0,0,87.56,359.79Z" transform="translate(-82.39 -350.2)"/></svg>