<svg id="Layer_3" data-name="Layer 3" xmlns="http://www.w3.org/2000/svg" viewBox="0 0 202.17 115.64"><defs><style>.cls-1{fill:#87cdd6;}.cls-2{fill:#9e4b07;}.cls-3{fill:#c98049;}</style></defs><title>cloud</title><path class="cls-1" d="M180.11,53.8A22.07,22.07,0,1,1,175,97.35a41.55,41.55,0,0,0,.43-43.06A22.06,22.06,0,0,1,180.11,53.8Z"/><path class="cls-1" d="M175.47,54.29A41.55,41.55,0,0,1,175,97.35a22.07,22.07,0,0,1,.43-43.06Z"/><path class="cls-1" d="M146.91,35.58a38.44,38.44,0,0,1,28.56,18.71A22.07,22.07,0,0,0,175,97.35a38.22,38.22,0,0,1-32.35,18.25,37.52,37.52,0,0,1-24.85-9.43c4.73-3.45,7.67-8.33,7.67-13.75a15.3,15.3,0,0,0-.4-3.46,47.88,47.88,0,0,0,23.24-41.49A49.51,49.51,0,0,0,146.91,35.58Z"/><path class="cls-1" d="M146.91,35.58a49.51,49.51,0,0,1,1.44,11.89A47.88,47.88,0,0,1,125.11,89c-1.92-8-10.39-14.28-21-15.33.93-21.31,17.83-38.3,38.55-38.3A36.65,36.65,0,0,1,146.91,35.58Z"/><path class="cls-1" d="M146.91,35.58a36.65,36.65,0,0,0-4.22-.25c-20.72,0-37.62,17-38.55,38.3q-1.55-.15-3.15-.15c-8.09,0-15.26,3-19.73,7.69A22,22,0,0,0,71,77.91a24.93,24.93,0,0,0-2.82-15.14A19.62,19.62,0,0,0,72.82,50c0-8.55-5.25-15.76-12.46-18.07C66.49,13.34,83.31,0,103.11,0,124.18,0,141.88,15.12,146.91,35.58Z"/><path class="cls-1" d="M125.11,89a15.3,15.3,0,0,1,.4,3.46c0,5.42-2.94,10.3-7.67,13.75a39.87,39.87,0,0,1-9.1-11.59A43.6,43.6,0,0,0,125.11,89Z"/><path class="cls-1" d="M104.14,73.63c10.58,1.05,19,7.3,21,15.33a43.6,43.6,0,0,1-16.37,5.62,41.26,41.26,0,0,1-4.64-19.11C104.1,74.85,104.11,74.24,104.14,73.63Z"/><path class="cls-1" d="M108.74,94.58a39.87,39.87,0,0,0,9.1,11.59A28.6,28.6,0,0,1,101,111.35a29.45,29.45,0,0,1-14.54-3.68,17.74,17.74,0,0,0,3.8-10.92,17.25,17.25,0,0,0-.44-3.89,43.26,43.26,0,0,0,18.93,1.72Z"/><path class="cls-1" d="M108.74,94.58a43.26,43.26,0,0,1-18.93-1.72,18.9,18.9,0,0,0-8.55-11.69C85.73,76.5,92.9,73.48,101,73.48q1.61,0,3.15.15c0,.61,0,1.22,0,1.84A41.26,41.26,0,0,0,108.74,94.58Z"/><path class="cls-1" d="M89.81,92.86a17.25,17.25,0,0,1,.44,3.89,17.74,17.74,0,0,1-3.8,10.92c-6.06-3.45-10-9-10-15.25a15,15,0,0,1,1.14-5.73A44.07,44.07,0,0,0,89.81,92.86Z"/><path class="cls-1" d="M81.26,81.17a18.9,18.9,0,0,1,8.55,11.69,44.07,44.07,0,0,1-12.2-6.17A17.69,17.69,0,0,1,81.26,81.17Z"/><path class="cls-1" d="M86.45,107.67a21.31,21.31,0,0,1-16.88,8c-9.54,0-17.57-5.91-19.95-13.94C60.27,97.94,68.23,90,70.54,80.42a46.25,46.25,0,0,0,7.07,6.27,15,15,0,0,0-1.14,5.73C76.47,98.67,80.39,104.22,86.45,107.67Z"/><path class="cls-1" d="M81.26,81.17a17.69,17.69,0,0,0-3.65,5.52,46.25,46.25,0,0,1-7.07-6.27c.2-.83.35-1.66.47-2.51A22,22,0,0,1,81.26,81.17Z"/><path class="cls-1" d="M71.22,74.66A25,25,0,0,1,71,77.91c-.48,0-1,0-1.44,0s-.79,0-1.18,0a47.29,47.29,0,0,1-6.34-10.48,17.39,17.39,0,0,0,6.14-4.64A25,25,0,0,1,71.22,74.66Z"/><path class="cls-1" d="M71,77.91c-.12.85-.27,1.68-.47,2.51-.75-.82-1.47-1.65-2.15-2.53.39,0,.78,0,1.18,0S70.53,77.88,71,77.91Z"/><path class="cls-1" d="M68.39,77.89c.68.88,1.4,1.71,2.15,2.53C68.23,90,60.27,97.94,49.62,101.7a17.28,17.28,0,0,1-.72-5C48.9,86.69,57.52,78.45,68.39,77.89Z"/><path class="cls-1" d="M60.36,31.92C67.57,34.23,72.82,41.44,72.82,50a19.62,19.62,0,0,1-4.63,12.78A31,31,0,0,0,58.07,51.84c-.13-1.44-.19-2.89-.19-4.37A49.46,49.46,0,0,1,60.36,31.92Z"/><path class="cls-1" d="M68.19,62.77a17.39,17.39,0,0,1-6.14,4.64,48.58,48.58,0,0,1-4-15.57A31,31,0,0,1,68.19,62.77Z"/><path class="cls-1" d="M62.05,67.41a47.29,47.29,0,0,0,6.34,10.48c-10.87.56-19.49,8.8-19.49,18.86a17.28,17.28,0,0,0,.72,5,41.82,41.82,0,0,1-14,2.37C15.94,104.07,0,90.91,0,74.66s15.94-29.4,35.61-29.4c1,0,1.92,0,2.87.1A20.66,20.66,0,0,0,38,50c0,10.41,7.81,18.85,17.43,18.85A16.3,16.3,0,0,0,62.05,67.41Z"/><path class="cls-1" d="M58.07,51.84a48.58,48.58,0,0,0,4,15.57,16.3,16.3,0,0,1-6.67,1.43C45.76,68.84,38,60.4,38,50a20.66,20.66,0,0,1,.53-4.63A39.86,39.86,0,0,1,58.07,51.84Z"/><path class="cls-1" d="M60.36,31.92a49.46,49.46,0,0,0-2.48,15.55c0,1.48.06,2.93.19,4.37a39.86,39.86,0,0,0-19.59-6.48c1.91-8.17,8.75-14.22,16.9-14.22A16.12,16.12,0,0,1,60.36,31.92Z"/><rect class="cls-2" x="114.6" y="105.6" width="30.24" height="9.58"/><rect class="cls-3" x="50.95" y="105.6" width="30.24" height="9.58"/></svg>