<svg id="Layer_3" data-name="Layer 3" xmlns="http://www.w3.org/2000/svg" viewBox="0 0 202.17 116.18"><defs><style>.cls-1{fill:#ffffff;}.cls-2{fill:#9e4b07;}.cls-3{fill:#c98049;}</style></defs><title>cloud-02</title><path class="cls-1" d="M180.11,53.8a22.06,22.06,0,0,0-4.64.49,38.49,38.49,0,0,0-28.55-18.71C141.89,15.12,124.18,0,103.11,0,83.32,0,66.51,13.35,60.37,31.93a16.17,16.17,0,0,0-5-.79c-8.15,0-15,6.06-16.89,14.23-1-.06-1.91-.1-2.89-.1C15.94,45.27,0,58.43,0,74.67s15.94,29.4,35.61,29.4a42.15,42.15,0,0,0,14-2.37c2.38,8,10.39,13.94,19.94,13.94a21.29,21.29,0,0,0,16.86-8A29.46,29.46,0,0,0,101,111.35a28.65,28.65,0,0,0,16.85-5.18,37.59,37.59,0,0,0,24.85,9.43A38.22,38.22,0,0,0,175,97.34a21.72,21.72,0,0,0,5.07.59,22.07,22.07,0,0,0,0-44.13Z"/><rect class="cls-2" x="114.6" y="106.61" width="30.24" height="9.58"/><rect class="cls-3" x="50.96" y="106.61" width="30.24" height="9.58"/></svg>