<svg id="Layer_1" data-name="Layer 1" xmlns="http://www.w3.org/2000/svg" viewBox="0 0 405.66 466.12"><defs><style>.cls-1{fill:#bc4a28;}.cls-2{fill:#d8542b;}.cls-3{fill:#f4622f;}.cls-4{fill:#ce4419;}.cls-5{fill:#f7d6cb;}.cls-6{fill:#f4e8e4;}</style></defs><title>cone</title><path class="cls-1" d="M405.66,386.79,0,388.79v17.47c0,33.08,91,59.86,202.83,59.86s202.83-26.78,202.83-59.86V386.79Z"/><path class="cls-2" d="M202.83,326.71c111.85,0,202.83,26.39,202.83,59.08s-91,59.07-202.83,59.07S0,418.47,0,385.79,91,326.71,202.83,326.71Z"/><path class="cls-3" d="M332,362.15,240.64,28.75C236.31,11.81,220.55,0,203.22,0h-.78A38.42,38.42,0,0,0,165,28.75L73.65,362.15c-.79,2-1.58,3.55-1.58,5.52,0,21.66,58.69,39.38,130.76,39.38s130.76-17.72,130.76-39.38A9.88,9.88,0,0,0,332,362.15Z"/><path class="cls-4" d="M95.7,367.67a12.83,12.83,0,0,1,1.58-5.52l91.37-333.4A37.93,37.93,0,0,1,214.64,2a36.6,36.6,0,0,0-11.42-2h-.78A38.42,38.42,0,0,0,165,28.75L73.65,362.15c-.79,2-1.58,3.55-1.58,5.52,0,21.66,58.69,39.38,130.76,39.38h11.82C148.09,405.08,95.7,388.15,95.7,367.67Z"/><path class="cls-5" d="M313.11,290.87l-23.63-89.4c-23.24,6.3-53.57,9.84-86.65,9.84s-63.8-3.54-86.65-9.84l-23.63,89.4c23.24,11,63.81,18.12,110.28,18.12S289.87,301.5,313.11,290.87ZM275.69,149.48,254.42,69.13a303.27,303.27,0,0,1-51.59,4.33,303.27,303.27,0,0,1-51.59-4.33L130,149.48c20.87,5.51,46.08,8.66,72.86,8.66S254.82,155,275.69,149.48Z"/><path class="cls-6" d="M130,149.48a187.6,187.6,0,0,0,22.45,4.72l21.66-81.92c-7.88-.78-15.36-1.57-22.84-2.75Zm8.66,56.71c-7.87-1.18-15.36-3.15-22.44-4.73L92.55,290.87a150.68,150.68,0,0,0,21.67,7.87Z"/></svg>