<svg id="Layer_1" data-name="Layer 1" xmlns="http://www.w3.org/2000/svg" viewBox="0 0 177.62 21.74"><defs><style>.cls-1{fill:#fff;}.cls-1,.cls-10,.cls-11,.cls-12,.cls-2,.cls-3,.cls-4,.cls-5,.cls-6,.cls-7,.cls-8,.cls-9{stroke:#1d1d1b;stroke-miterlimit:10;}.cls-2{fill:#e3e1e2;}.cls-3{fill:#c8c6c6;}.cls-4{fill:#afacac;}.cls-5{fill:#989494;}.cls-6{fill:#827e7e;}.cls-7{fill:#6d6969;}.cls-8{fill:#5a5656;}.cls-9{fill:#484544;}.cls-10{fill:#373534;}.cls-11{fill:#272625;}.cls-12{fill:#191917;}.cls-13{fill:#333331;}.cls-14{fill:#2b2b28;}.cls-15{fill:#131412;}</style></defs><title>iphoneX-01</title><path class="cls-1" d="M124.56,21.24H2.91c-4.53,0-2.48-1.61,4.54-3.58l24.6-6.87c7-2,16.48-3.58,21-3.58H174.71c4.53,0,2.48,1.61-4.55,3.58l-24.59,6.87C138.54,19.63,129.09,21.24,124.56,21.24Z"/><path class="cls-2" d="M124.56,20.63H2.91c-4.53,0-2.48-1.61,4.54-3.58l24.6-6.87c7-2,16.48-3.58,21-3.58H174.71c4.53,0,2.48,1.61-4.55,3.58l-24.59,6.87C138.54,19,129.09,20.63,124.56,20.63Z"/><path class="cls-3" d="M124.56,20H2.91c-4.53,0-2.48-1.61,4.54-3.58l24.6-6.88c7-2,16.48-3.57,21-3.57H174.71c4.53,0,2.48,1.61-4.55,3.57l-24.59,6.88C138.54,18.41,129.09,20,124.56,20Z"/><path class="cls-4" d="M124.56,19.41H2.91c-4.53,0-2.48-1.61,4.54-3.58L32.05,9c7-2,16.48-3.57,21-3.57H174.71c4.53,0,2.48,1.61-4.55,3.57l-24.59,6.88C138.54,17.8,129.09,19.41,124.56,19.41Z"/><path class="cls-5" d="M124.56,18.8H2.91c-4.53,0-2.48-1.61,4.54-3.58l24.6-6.88c7-2,16.48-3.57,21-3.57H174.71c4.53,0,2.48,1.61-4.55,3.57l-24.59,6.88C138.54,17.19,129.09,18.8,124.56,18.8Z"/><path class="cls-6" d="M124.56,18.19H2.91c-4.53,0-2.48-1.61,4.54-3.58l24.6-6.88c7-2,16.48-3.57,21-3.57H174.71c4.53,0,2.48,1.61-4.55,3.57l-24.59,6.88C138.54,16.58,129.09,18.19,124.56,18.19Z"/><path class="cls-7" d="M124.56,17.57H2.91C-1.62,17.57.43,16,7.45,14l24.6-6.88c7-2,16.48-3.57,21-3.57H174.71c4.53,0,2.48,1.61-4.55,3.57L145.57,14C138.54,16,129.09,17.57,124.56,17.57Z"/><path class="cls-8" d="M124.56,17H2.91c-4.53,0-2.48-1.6,4.54-3.57l24.6-6.88c7-2,16.48-3.57,21-3.57H174.71c4.53,0,2.48,1.61-4.55,3.57l-24.59,6.88C138.54,15.36,129.09,17,124.56,17Z"/><path class="cls-9" d="M124.56,16.35H2.91c-4.53,0-2.48-1.6,4.54-3.57L32.05,5.9c7-2,16.48-3.57,21-3.57H174.71c4.53,0,2.48,1.61-4.55,3.57l-24.59,6.88C138.54,14.75,129.09,16.35,124.56,16.35Z"/><path class="cls-10" d="M124.56,15.74H2.91c-4.53,0-2.48-1.6,4.54-3.57l24.6-6.88c7-2,16.48-3.57,21-3.57H174.71c4.53,0,2.48,1.61-4.55,3.57l-24.59,6.88C138.54,14.14,129.09,15.74,124.56,15.74Z"/><path class="cls-11" d="M124.56,15.13H2.91c-4.53,0-2.48-1.6,4.54-3.57l24.6-6.88c7-2,16.48-3.57,21-3.57H174.71c4.53,0,2.48,1.61-4.55,3.57l-24.59,6.88C138.54,13.53,129.09,15.13,124.56,15.13Z"/><path class="cls-12" d="M124.56,14.52H2.91c-4.53,0-2.48-1.6,4.54-3.57l24.6-6.88c7-2,16.48-3.57,21-3.57H174.71c4.53,0,2.48,1.61-4.55,3.57L145.57,11C138.54,12.92,129.09,14.52,124.56,14.52Z"/><path class="cls-13" d="M123.59,13H8.43c-4.13,0-2.26-1.18,4.16-2.63L36.63,4C43,2.57,48.85,1.39,53,1.39H169.43c3.53,0,2.68.86-1.63,2-.74.19-5.6-.09-6.54.14C155,5.12,137.53,9.9,137.53,9.9c.12.3,5,.25,5.25.5S127.73,13,123.59,13Z"/><rect class="cls-14" x="90.25" y="16.81" width="13.38" height="2.12" rx="1.06" ry="1.06"/><rect class="cls-15" x="90.1" y="16.93" width="13.38" height="2.12" rx="1.06" ry="1.06"/></svg>