<svg id="Layer_1" data-name="Layer 1" xmlns="http://www.w3.org/2000/svg" viewBox="0 0 511.87 388.63"><defs><style>.cls-1{fill:#e2a223;}.cls-2{fill:#ffbe2c;}.cls-3{fill:#895f13;}.cls-4{fill:#6ca0ea;}.cls-5{fill:#535353;}.cls-6{fill:#cbcdd1;}.cls-7{fill:#a2a2a2;stroke:#fff;stroke-miterlimit:10;stroke-width:5px;}.cls-8{fill:#f7f8f9;fill-opacity:0.52;}</style></defs><title>loader</title><path class="cls-1" d="M472.28,1.49H324.78L210,116.24h73.27l60.14-67.79L467,46.51l-2.65-27.37Z"/><path class="cls-1" d="M141.24,282.28h88.28V255.79H141.24Z"/><path class="cls-2" d="M121.59,114.55v70.62H56.37A27.51,27.51,0,0,0,29,212.54v43.25H293.83V151.63c0-7.06-.89-14.13-3.53-20.31-7.95-21.18-28.25-34.42-51.2-34.42H139.24a17.7,17.7,0,0,0-17.65,17.65"/><path class="cls-3" d="M64.67,185.17C45.11,185.17,29,197.53,29,212.54v7.94H86.53c19.56,0,34.51-12.36,34.51-26.48v-8.83Z"/><path class="cls-4" d="M237.33,96.9H196.72s-3.38,53.59,1.42,71.06c8.39,30.55,21.42,51.64,21.42,51.64h74.27V150.74c0-17.65-8.83-34.42-23.84-45.9a68.67,68.67,0,0,0-32.66-7.94"/><path class="cls-5" d="M352.89,388.63H53.18c-29,0-53.18-24.17-53.18-53.18s24.17-53.17,53.18-53.17H352.89c29,0,53.18,24.17,53.18,53.17s-24.17,53.18-53.18,53.18"/><path class="cls-6" d="M319.05,335.45c0-11.6,8.71-21.27,19.34-24.17H67.68C78.31,313.21,87,322.88,87,335.45s-8.7,21.27-19.33,24.17H338.39c-10.63-2.9-19.34-12.57-19.34-24.17"/><path class="cls-7" d="M87,335.45a24.17,24.17,0,1,0-24.17,24.17A23.94,23.94,0,0,0,87,335.45"/><path class="cls-7" d="M367.4,335.45a24.18,24.18,0,1,0-24.18,24.17,23.94,23.94,0,0,0,24.18-24.17"/><path class="cls-8" d="M244.48,105.48H221a2.31,2.31,0,0,0-1.92,3.76l65.06,77.93V141.33c0-11.76-6.2-22.92-16.74-30.56a50.37,50.37,0,0,0-22.94-5.29"/><path class="cls-2" d="M441.89,0h56l1.35,64.47L496.5,280.94H460.33l-26.11-235Z"/><path class="cls-1" d="M457.61,388.63H406.07s32.61-39.08,39.88-54.26c6.06-12.66,14.38-54.26,14.38-54.26H496.5l12.66,37.08a55.86,55.86,0,0,1,0,34.36h0a54.65,54.65,0,0,1-51.55,37.08"/></svg>