<svg id="Layer_1" data-name="Layer 1" xmlns="http://www.w3.org/2000/svg" viewBox="0 0 235.32 250.39"><defs><style>.cls-1{fill:#8675b4;}.cls-2,.cls-7{fill:#6c589f;}.cls-3{fill:#7ac9d6;}.cls-4{fill:#9180bb;}.cls-5{fill:#8071b2;}.cls-6{fill:#59c1d3;}.cls-7{stroke:#fff;}.cls-7,.cls-8,.cls-9{stroke-miterlimit:10;}.cls-8,.cls-9{fill:none;stroke:#3ea0a9;}.cls-9{stroke-dasharray:2.97 2.97;}</style></defs><title>sewing-machine</title><path class="cls-1" d="M62.1,42.18a1.17,1.17,0,0,0,1.18,1.17h0a1.17,1.17,0,0,0,1.17-1.17V3.5a1.17,1.17,0,0,0-1.17-1.17h0A1.17,1.17,0,0,0,62.1,3.5Z" transform="translate(-11.61 -2.33)"/><rect class="cls-2" x="48.74" y="7.91" width="5.86" height="31.28"/><path class="cls-2" d="M53.12,46a5,5,0,0,0,5,4.95h10.1a5,5,0,0,0,5-4.95h0a5,5,0,0,0-5-5H58.07a5,5,0,0,0-5,5Z" transform="translate(-11.61 -2.33)"/><rect class="cls-3" x="44.34" y="10.11" width="14.94" height="26.52"/><path class="cls-2" d="M215.7,86.57A4.93,4.93,0,0,0,221,91.06h0a4.92,4.92,0,0,0,4.49-5.31L224.32,71.6A4.91,4.91,0,0,0,219,67.11h0a4.92,4.92,0,0,0-4.49,5.3Z" transform="translate(-11.61 -2.33)"/><path class="cls-2" d="M29.59,62.37c-2-2.86-9.49-2.86-11.52,0-5.94,8.33-5.94,38.8,0,47.13,2,2.86,9.48,2.86,11.52,0,2.73-3.83.43-12.35.64-21.25C30.49,77.82,32.79,66.86,29.59,62.37Z" transform="translate(-11.61 -2.33)"/><path class="cls-1" d="M98,189.89s-31.46,6.74-75.29,0c0,0-.37-13.48,6.74-30.72s4.5-32.21.76-40.45c0,0-7.12-12-6-30s2.25-38.21,26.22-43.82,80.26,24.13,132.62,6C217.52,39,220.72,49.05,220,101.11s-8.1,60.69-15.59,60.69-16-21.35-18.65-34.09S176,110.1,155.39,110.48,92.75,107.11,87.88,124,83.76,154.68,89,165.17,97.62,185.77,98,189.89Z" transform="translate(-11.61 -2.33)"/><path class="cls-2" d="M102.13,113.54h0C75.75,115.19,71.26,146,77.55,159.21s5,32.72,5,32.77A142.54,142.54,0,0,0,98,189.89c-.37-4.12-3.74-14.23-9-24.72S83,140.82,87.88,124C89.38,118.78,94.78,115.55,102.13,113.54Z" transform="translate(-11.61 -2.33)"/><path class="cls-4" d="M35.52,166.79c4-8.91,6.29-32.36,0-46.45s-11.7-59,13-74.92C26.39,51.65,25.29,71.26,24.2,88.75c-1.12,18,6,30,6,30,3.74,8.24,6.36,23.22-.76,40.45s-6.74,30.72-6.74,30.72c2.45.38,4.84.7,7.21,1C29.92,190.83,31.56,175.69,35.52,166.79Z" transform="translate(-11.61 -2.33)"/><path class="cls-2" d="M203,120.34a9.12,9.12,0,1,0,9.12,9.12A9.11,9.11,0,0,0,203,120.34Zm0,13.74a4.62,4.62,0,1,1,4.62-4.62A4.62,4.62,0,0,1,203,134.08Z" transform="translate(-11.61 -2.33)"/><path class="cls-2" d="M92.63,82.31A25.37,25.37,0,1,1,67.26,56.94,25.37,25.37,0,0,1,92.63,82.31Z" transform="translate(-11.61 -2.33)"/><rect class="cls-5" y="187.58" width="235.32" height="37.15"/><path class="cls-6" d="M150.47,189.91h-6.53s-16.53,5.1-20.81,12.44-7.14,28.7-14.28,31,.61,3.48,14.28,6.34,40.59-2.41,50,4.73,25.66,15.08,26.72-1.22c1.65-25.38,43.45-47.77,42.64-52.26s-19.18-.37-21.22-1Z" transform="translate(-11.61 -2.33)"/><path class="cls-6" d="M70.89,39s-11.24-7.1-11.64-26.52H56V39Z" transform="translate(-11.61 -2.33)"/><path class="cls-7" d="M135.14,85.93a7.59,7.59,0,1,1-7.59-7.58A7.59,7.59,0,0,1,135.14,85.93Z" transform="translate(-11.61 -2.33)"/><path class="cls-7" d="M172.48,85.93a7.59,7.59,0,1,1-7.59-7.58A7.59,7.59,0,0,1,172.48,85.93Z" transform="translate(-11.61 -2.33)"/><path class="cls-7" d="M153.81,85.93a7.59,7.59,0,1,1-7.59-7.58A7.59,7.59,0,0,1,153.81,85.93Z" transform="translate(-11.61 -2.33)"/><path class="cls-8" d="M147.7,190.89l-1.45.4" transform="translate(-11.61 -2.33)"/><path class="cls-9" d="M143.42,192.17c-5.1,1.7-13.26,5-15.9,9.54-4,6.76-7.28,29.08-13.85,31.15s1.27.54,13.85,3.16,37.35-2.21,46,4.36,22.36,14.72,23.34-.28c1.32-20.32,31.58-39.21,38.9-46.49" transform="translate(-11.61 -2.33)"/><path class="cls-8" d="M236.74,192.51a1.92,1.92,0,0,0,.58-1.34" transform="translate(-11.61 -2.33)"/></svg>