
<svg id="Layer_4" data-name="Layer 4" xmlns="http://www.w3.org/2000/svg" viewBox="0 0 113.91 218.38">
<defs>
<style>.cls-1{fill:#494947;}.cls-2,.cls-5{fill:none;stroke:#494947;}.cls-2,.cls-3,.cls-5{stroke-miterlimit:10;}.cls-2{stroke-width:2px;}.cls-3{fill:#bfbfbb;stroke:#6b6b6a;}.cls-4{fill:#6b6b6a;}.cls-6{fill:#41423e;}.cls-7{fill:#c98049;}.cls-8{fill:#9e4b07;}
</style>
</defs>
<title>standleft
</title>
<ellipse class="cls-1" cx="44.41" cy="215.06" rx="3.22" ry="2.78"/>
<line class="cls-2" x1="46.13" y1="208.95" x2="46.13" y2="214.09"/>
<ellipse class="cls-1" cx="63.94" cy="213.19" rx="3.22" ry="2.78"/>
<line class="cls-2" x1="65.66" y1="207.08" x2="65.66" y2="212.22"/>
<ellipse class="cls-1" cx="17.22" cy="215.06" rx="3.22" ry="2.78"/>
<line class="cls-2" x1="18.94" y1="208.95" x2="18.94" y2="214.09"/>
<path class="cls-3" d="M15,149.35H49.43a0,0,0,0,1,0,0V210.9a0,0,0,0,1,0,0h-32a9.83,9.83,0,0,1-9.83-9.83V156.75A7.4,7.4,0,0,1,15,149.35Z"/>
<path class="cls-4" d="M66.71,207.75c-5.45,1.38-11.46,2.37-17,3.68a.58.58,0,0,1-.48-.09c-3.88-2.78-4.8-7-4.8-11.61V157.34a8.81,8.81,0,0,1,9-8.54H66.31a1.91,1.91,0,0,1,2,1.86V205h0C68.34,207.05,68.81,207.1,66.71,207.75Z"/>
<path class="cls-5" d="M13.85,159.93H38.28a4.45,4.45,0,0,1,4.45,4.45v5a0,0,0,0,1,0,0H9.4a0,0,0,0,1,0,0v-5A4.45,4.45,0,0,1,13.85,159.93Z"/>
<line class="cls-5" x1="12.94" y1="165.53" x2="35.97" y2="165.53"/>
<path class="cls-5" d="M13.85,170.89H38.28a4.45,4.45,0,0,1,4.45,4.45v5a0,0,0,0,1,0,0H9.4a0,0,0,0,1,0,0v-5a4.45,4.45,0,0,1,4.45-4.45Z"/>
<line class="cls-5" x1="12.94" y1="176.49" x2="35.97" y2="176.49"/>
<path class="cls-5" d="M13.85,181.86H38.28a4.45,4.45,0,0,1,4.45,4.45v5a0,0,0,0,1,0,0H9.4a0,0,0,0,1,0,0v-5a4.45,4.45,0,0,1,4.45-4.45Z"/>
<line class="cls-5" x1="12.94" y1="187.46" x2="35.97" y2="187.46"/>
<path class="cls-5" d="M13.85,192.83H38.28a4.45,4.45,0,0,1,4.45,4.45v5a0,0,0,0,1,0,0H9.4a0,0,0,0,1,0,0v-5A4.45,4.45,0,0,1,13.85,192.83Z"/>
<line class="cls-5" x1="12.94" y1="198.42" x2="35.97" y2="198.42"/>
<line class="cls-2" x1="47.87" y1="210.9" x2="68.37" y2="206.57"/>
<line class="cls-2" x1="14" y1="210.9" x2="48.63" y2="210.9"/>
<rect class="cls-6" x="104.93" y="212.37" width="7.11" height="3.21"/>
<polygon class="cls-6" points="110.67 212.37 106.54 212.37 107.22 206.19 110.13 206.19 110.67 212.37"/>
<rect class="cls-7" x="82.01" y="0.14" width="14.84" height="204.2"/>
<polygon class="cls-7" points="97.95 204.33 114 215.05 103.22 215.05 87.49 204.33 97.95 204.33"/>
<path class="cls-8" d="M82,200.6H68.37V.14H82Z"/>
<polygon class="cls-8" points="51.86 215.05 103.22 215.05 82.01 200.6 68.37 200.6 51.86 215.05"/>
<rect class="cls-6" x="50.85" y="212.87" width="7.11" height="3.21"/>
<polygon class="cls-6" points="56.58 212.87 52.45 212.87 53.14 206.69 56.05 206.69 56.58 212.87"/>
<rect class="cls-6" x="86.73" y="212.37" width="7.11" height="3.21"/>
<polygon class="cls-6" points="92.46 212.37 88.33 212.37 89.02 206.19 91.93 206.19 92.46 212.37"/>
</svg>