<svg id="Layer_2" data-name="Layer 2" xmlns="http://www.w3.org/2000/svg" viewBox="0 0 173.33 216.75"><defs><style>.cls-1{fill:#64843e;}.cls-2{fill:#c98049;}.cls-3{fill:#9e4b07;}.cls-4{fill:#494947;}.cls-5{fill:#41423e;}.cls-6{fill:#545650;}.cls-7{fill:#8b8c89;}.cls-8{fill:#8c8d8a;}.cls-9{fill:#8d8e8b;}.cls-10{fill:#8e8f8c;}.cls-11{fill:#8f908d;}.cls-12{fill:#90918e;}.cls-13{fill:#91928f;}.cls-14{fill:#929390;}.cls-15{fill:#939491;}.cls-16{fill:#949591;}.cls-17{fill:#959692;}.cls-18{fill:#969793;}.cls-19{fill:#979894;}.cls-20{fill:#989995;}.cls-21{fill:#999a96;}.cls-22{fill:#9a9b97;}.cls-23{fill:#9b9c98;}.cls-24{fill:#9c9d99;}.cls-25{fill:#9c9e9a;}.cls-26{fill:#9d9f9b;}.cls-27{fill:#9ea09c;}.cls-28{fill:#9fa19d;}.cls-29{fill:#a0a29e;}.cls-30{fill:#a1a39f;}.cls-31{fill:#a2a4a0;}.cls-32{fill:#a3a5a1;}.cls-33{fill:#a4a6a2;}.cls-34{fill:#a5a7a2;}.cls-35{fill:#a6a8a3;}.cls-36{fill:#a7a9a4;}.cls-37{fill:#a8aaa5;}.cls-38{fill:#a9aba6;}.cls-39{fill:#aaaca7;}.cls-40{fill:#abada8;}.cls-41{fill:#acaea9;}.cls-42{fill:#adaeaa;}.cls-43{fill:#aeafab;}.cls-44{fill:#afb0ac;}.cls-45{fill:#b0b1ad;}.cls-46{fill:#b1b2ae;}.cls-47{fill:#b2b3af;}.cls-48{fill:#b3b4b0;}.cls-49{fill:#b4b5b1;}.cls-50{fill:#b5b6b2;}.cls-51{fill:#b6b7b2;}.cls-52{fill:#b7b8b3;}.cls-53{fill:#b8b9b4;}.cls-54{fill:#b9bab5;}.cls-55{fill:#babbb6;}.cls-56{fill:#bbbcb7;}.cls-57{fill:#bcbdb8;}.cls-58{fill:#bdbeb9;}.cls-59{fill:#bebfba;}.cls-60{fill:#bec0bb;}.cls-61{fill:#bfc1bc;}.cls-62{fill:#c0c2bd;}.cls-63{fill:#c1c3be;}.cls-64{fill:#c2c4bf;}.cls-65{fill:#c3c5c0;}.cls-66{fill:#c4c6c1;}.cls-67{fill:#c5c7c2;}.cls-68{fill:#c6c8c3;}.cls-69{fill:#c7c9c3;}.cls-70{fill:#c8cac4;}.cls-71{fill:#c9cbc5;}.cls-72{fill:#caccc6;}.cls-73{fill:#cbcdc7;}.cls-74{fill:#cccec8;}.cls-75{fill:#cdcfc9;}.cls-76{fill:#ced0ca;}.cls-77{fill:#cfd1cb;}.cls-78{fill:#656863;}.cls-79{fill:#646961;}.cls-80{fill:#636960;}.cls-81{fill:#636a5e;}.cls-82{fill:#626a5d;}.cls-83{fill:#616b5b;}.cls-84{fill:#606c5a;}.cls-85{fill:#606c58;}.cls-86{fill:#5f6d57;}.cls-87{fill:#5e6e55;}.cls-88{fill:#5d6e54;}.cls-89{fill:#5c6f52;}.cls-90{fill:#5c6f51;}.cls-91{fill:#5b704f;}.cls-92{fill:#5a714d;}.cls-93{fill:#59714c;}.cls-94{fill:#58724a;}.cls-95{fill:#587349;}.cls-96{fill:#577347;}.cls-97{fill:#567446;}.cls-98{fill:#557444;}.cls-99{fill:#557543;}.cls-100{fill:#547641;}.cls-101{fill:#537640;}.cls-102{fill:#52773e;}.cls-103{fill:#51783c;}.cls-104{fill:#51783b;}.cls-105{fill:#507939;}.cls-106{fill:#4f7938;}.cls-107{fill:#4e7a36;}.cls-108{fill:#4d7b35;}.cls-109{fill:#4d7b33;}.cls-110{fill:#4c7c32;}.cls-111{fill:#4b7d30;}.cls-112{fill:#4a7d2f;}.cls-113{fill:#4a7e2d;}.cls-114{fill:#497e2c;}.cls-115{fill:#487f2a;}.cls-116{fill:#666762;}.cls-117{fill:#666661;}.cls-118{fill:#676560;}.cls-119{fill:#68645f;}.cls-120{fill:#68635e;}.cls-121{fill:#69625d;}.cls-122{fill:#69615c;}.cls-123{fill:#6a605c;}.cls-124{fill:#6b5f5b;}.cls-125{fill:#6b5e5a;}.cls-126{fill:#6c5d59;}.cls-127{fill:#6d5c58;}.cls-128{fill:#6d5b57;}.cls-129{fill:#6e5a56;}.cls-130{fill:#6e5955;}.cls-131{fill:#6f5854;}.cls-132{fill:#705753;}.cls-133{fill:#705652;}.cls-134{fill:#715551;}.cls-135{fill:#725450;}.cls-136{fill:#72534f;}.cls-137{fill:#73524f;}.cls-138{fill:#73514e;}.cls-139{fill:#74504d;}.cls-140{fill:#754f4c;}.cls-141{fill:#754e4b;}.cls-142{fill:#764d4a;}.cls-143{fill:#774c49;}.cls-144{fill:#774b48;}.cls-145{fill:#784a47;}.cls-146{fill:#784946;}.cls-147{fill:#794845;}.cls-148{fill:#7a4744;}.cls-149{fill:#7a4643;}.cls-150{fill:#7b4542;}.cls-151{fill:#7c4442;}.cls-152{fill:#7c4341;}.cls-153{fill:#7d4240;}.cls-154{fill:#7d413f;}.cls-155{fill:#7e403e;}.cls-156{fill:#7f3f3d;}.cls-157{fill:#7f3e3c;}.cls-158{fill:#803e3b;}.cls-159{fill:#813d3a;}.cls-160{fill:#813c39;}.cls-161{fill:#823b38;}.cls-162{fill:#833a37;}.cls-163{fill:#833936;}.cls-164{fill:#843835;}.cls-165{fill:#843734;}.cls-166{fill:#853634;}.cls-167{fill:#863533;}.cls-168{fill:#863432;}.cls-169{fill:#873331;}.cls-170{fill:#883230;}.cls-171{fill:#88312f;}.cls-172{fill:#89302e;}.cls-173{fill:#892f2d;}.cls-174{fill:#8a2e2c;}.cls-175{fill:#8b2d2b;}.cls-176{fill:#8b2c2a;}.cls-177{fill:#8c2b29;}.cls-178{fill:#8d2a28;}.cls-179{fill:#8d2927;}.cls-180{fill:#8e2827;}.cls-181{fill:#8e2726;}.cls-182{fill:#8f2625;}.cls-183{fill:#902524;}.cls-184{fill:#902423;}.cls-185{fill:#912322;}.cls-186{fill:#922221;}.cls-187{fill:#922120;}.cls-188{fill:#93201f;}.cls-189{fill:#931f1e;}.cls-190{fill:#941e1d;}.cls-191{fill:#951d1c;}.cls-192{fill:#951c1b;}.cls-193{fill:#961b1a;}.cls-194{fill:#971a1a;}.cls-195{fill:#971919;}.cls-196{fill:#981818;}.cls-197{fill:#981717;}.cls-198{fill:#991616;}.cls-199{fill:#9a1515;}.cls-200{fill:#9a1414;}.cls-201{fill:#9b1313;}.cls-202{fill:#60605e;}.cls-203{fill:#777776;}.cls-204{fill:#82837f;}.cls-205{fill:#8c8e88;}.cls-206{fill:#787877;}.cls-207{fill:#797978;}.cls-208{fill:#7a7a79;}.cls-209{fill:#7b7b7a;}.cls-210{fill:#7c7c7b;}.cls-211{fill:#7d7d7c;}.cls-212{fill:#7e7e7d;}.cls-213{fill:#7f7f7e;}.cls-214{fill:#80807f;}.cls-215{fill:#818180;}.cls-216{fill:#828281;}.cls-217{fill:#838382;}.cls-218{fill:#848483;}.cls-219{fill:#858584;}.cls-220{fill:#868685;}.cls-221{fill:#878786;}.cls-222{fill:#888887;}.cls-223{fill:#898988;}.cls-224{fill:#8a8a89;}.cls-225{fill:#8b8b8a;}.cls-226{fill:#8c8c8b;}.cls-227{fill:#8d8d8c;}.cls-228{fill:#8e8e8d;}.cls-229{fill:#8f8f8e;}.cls-230{fill:#90908f;}.cls-231{fill:#919190;}.cls-232{fill:#929291;}.cls-233{fill:#939392;}.cls-234{fill:#949493;}.cls-235{fill:#959594;}.cls-236{fill:#969695;}.cls-237{fill:#979796;}.cls-238{fill:#989897;}.cls-239{fill:#999998;}.cls-240{fill:#9a9a99;}.cls-241{fill:#9b9b9a;}.cls-242{fill:#9c9c9b;}.cls-243{fill:#9d9d9c;}.cls-244{fill:#9e9e9d;}.cls-245{fill:#9f9f9e;}.cls-246{fill:#a0a09f;}.cls-247{fill:#a1a1a0;}.cls-248{fill:#a2a2a1;}.cls-249{fill:#a3a3a2;}.cls-250{fill:#a4a4a3;}.cls-251{fill:#a5a5a4;}.cls-252{fill:#a6a6a5;}.cls-253{fill:#a7a7a6;}.cls-254{fill:#a8a8a7;}.cls-255{fill:none;stroke:#494947;stroke-miterlimit:10;stroke-width:2px;}</style></defs><title>standright</title><path class="cls-1" d="M110.28,212.62"/><polygon class="cls-2" points="157.28 204.2 173.34 214.91 162.56 214.91 146.83 204.2 157.28 204.2"/><path class="cls-3" d="M141.35,200.46H127.71V0h13.64Z"/><polygon class="cls-3" points="111.2 214.91 162.56 214.91 141.35 200.46 127.71 200.46 111.2 214.91"/><rect class="cls-4" x="149.91" y="143.38" width="2.1" height="23.8" rx="0.28" ry="0.28"/><rect class="cls-4" x="153.21" y="161.78" width="2.1" height="8.71" rx="0.32" ry="0.32" transform="translate(-11.87 320.4) rotate(-90)"/><rect class="cls-5" x="164.08" y="211.04" width="7.11" height="3.21"/><polygon class="cls-5" points="169.81 211.04 165.69 211.04 166.37 204.86 169.28 204.86 169.81 211.04"/><rect class="cls-2" x="141.35" width="14.84" height="204.2"/><rect class="cls-6" y="213.72" width="173.33" height="3.03"/><rect class="cls-5" x="152.63" y="211.54" width="7.11" height="3.21"/><polygon class="cls-5" points="158.36 211.54 154.23 211.54 154.92 205.36 157.83 205.36 158.36 211.54"/><rect class="cls-5" x="111.2" y="211.04" width="7.11" height="3.21"/><polygon class="cls-5" points="116.93 211.04 112.81 211.04 113.49 204.86 116.4 204.86 116.93 211.04"/><rect class="cls-7" x="122.78" y="84.32" width="23.49" height="31.43" rx="6.01" ry="6.01"/><rect class="cls-8" x="122.76" y="84.34" width="23.49" height="31.43" rx="6.01" ry="6.01"/><rect class="cls-9" x="122.73" y="84.36" width="23.49" height="31.43" rx="6.01" ry="6.01"/><rect class="cls-10" x="122.71" y="84.38" width="23.49" height="31.43" rx="6.01" ry="6.01"/><rect class="cls-11" x="122.69" y="84.39" width="23.49" height="31.43" rx="6.01" ry="6.01"/><rect class="cls-12" x="122.66" y="84.41" width="23.49" height="31.43" rx="6.01" ry="6.01"/><rect class="cls-13" x="122.64" y="84.43" width="23.49" height="31.43" rx="6.01" ry="6.01"/><rect class="cls-14" x="122.62" y="84.45" width="23.49" height="31.43" rx="6.01" ry="6.01"/><rect class="cls-15" x="122.59" y="84.47" width="23.49" height="31.43" rx="6.01" ry="6.01"/><rect class="cls-16" x="122.57" y="84.49" width="23.49" height="31.43" rx="6.01" ry="6.01"/><rect class="cls-17" x="122.55" y="84.51" width="23.49" height="31.43" rx="6.01" ry="6.01"/><rect class="cls-18" x="122.52" y="84.52" width="23.49" height="31.43" rx="6.01" ry="6.01"/><rect class="cls-19" x="122.5" y="84.54" width="23.49" height="31.43" rx="6.01" ry="6.01"/><rect class="cls-20" x="122.47" y="84.56" width="23.49" height="31.43" rx="6.01" ry="6.01"/><rect class="cls-21" x="122.45" y="84.58" width="23.49" height="31.43" rx="6.01" ry="6.01"/><rect class="cls-22" x="122.43" y="84.6" width="23.49" height="31.43" rx="6.01" ry="6.01"/><rect class="cls-23" x="122.4" y="84.62" width="23.49" height="31.43" rx="6.01" ry="6.01"/><rect class="cls-24" x="122.38" y="84.64" width="23.49" height="31.43" rx="6.01" ry="6.01"/><rect class="cls-25" x="122.36" y="84.66" width="23.49" height="31.43" rx="6.01" ry="6.01"/><rect class="cls-26" x="122.33" y="84.67" width="23.49" height="31.43" rx="6.01" ry="6.01"/><rect class="cls-27" x="122.31" y="84.69" width="23.49" height="31.43" rx="6.01" ry="6.01"/><rect class="cls-28" x="122.29" y="84.71" width="23.49" height="31.43" rx="6.01" ry="6.01"/><rect class="cls-29" x="122.26" y="84.73" width="23.49" height="31.43" rx="6.01" ry="6.01"/><rect class="cls-30" x="122.24" y="84.75" width="23.49" height="31.43" rx="6.01" ry="6.01"/><rect class="cls-31" x="122.21" y="84.77" width="23.49" height="31.43" rx="6.01" ry="6.01"/><rect class="cls-32" x="122.19" y="84.79" width="23.49" height="31.43" rx="6.01" ry="6.01"/><rect class="cls-33" x="122.17" y="84.8" width="23.49" height="31.43" rx="6.01" ry="6.01"/><rect class="cls-34" x="122.14" y="84.82" width="23.49" height="31.43" rx="6.01" ry="6.01"/><rect class="cls-35" x="122.12" y="84.84" width="23.49" height="31.43" rx="6.01" ry="6.01"/><rect class="cls-36" x="122.1" y="84.86" width="23.49" height="31.43" rx="6.01" ry="6.01"/><rect class="cls-37" x="122.07" y="84.88" width="23.49" height="31.43" rx="6.01" ry="6.01"/><rect class="cls-38" x="122.05" y="84.9" width="23.49" height="31.43" rx="6.01" ry="6.01"/><rect class="cls-39" x="122.03" y="84.92" width="23.49" height="31.43" rx="6.01" ry="6.01"/><rect class="cls-40" x="122" y="84.93" width="23.49" height="31.43" rx="6.01" ry="6.01"/><rect class="cls-41" x="121.98" y="84.95" width="23.49" height="31.43" rx="6.01" ry="6.01"/><rect class="cls-42" x="121.95" y="84.97" width="23.49" height="31.43" rx="6.01" ry="6.01"/><rect class="cls-43" x="121.93" y="84.99" width="23.49" height="31.43" rx="6.01" ry="6.01"/><rect class="cls-44" x="121.91" y="85.01" width="23.49" height="31.43" rx="6.01" ry="6.01"/><rect class="cls-45" x="121.88" y="85.03" width="23.49" height="31.43" rx="6.01" ry="6.01"/><rect class="cls-46" x="121.86" y="85.05" width="23.49" height="31.43" rx="6.01" ry="6.01"/><rect class="cls-47" x="121.84" y="85.06" width="23.49" height="31.43" rx="6.01" ry="6.01"/><rect class="cls-48" x="121.81" y="85.08" width="23.49" height="31.43" rx="6.01" ry="6.01"/><rect class="cls-49" x="121.79" y="85.1" width="23.49" height="31.43" rx="6.01" ry="6.01"/><rect class="cls-50" x="121.77" y="85.12" width="23.49" height="31.43" rx="6.01" ry="6.01"/><rect class="cls-51" x="121.74" y="85.14" width="23.49" height="31.43" rx="6.01" ry="6.01"/><rect class="cls-52" x="121.72" y="85.16" width="23.49" height="31.43" rx="6.01" ry="6.01"/><rect class="cls-53" x="121.7" y="85.18" width="23.49" height="31.43" rx="6.01" ry="6.01"/><rect class="cls-54" x="121.67" y="85.19" width="23.49" height="31.43" rx="6.01" ry="6.01"/><rect class="cls-55" x="121.65" y="85.21" width="23.49" height="31.43" rx="6.01" ry="6.01"/><rect class="cls-56" x="121.62" y="85.23" width="23.49" height="31.43" rx="6.01" ry="6.01"/><rect class="cls-57" x="121.6" y="85.25" width="23.49" height="31.43" rx="6.01" ry="6.01"/><rect class="cls-58" x="121.58" y="85.27" width="23.49" height="31.43" rx="6.01" ry="6.01"/><rect class="cls-59" x="121.55" y="85.29" width="23.49" height="31.43" rx="6.01" ry="6.01"/><rect class="cls-60" x="121.53" y="85.31" width="23.49" height="31.43" rx="6.01" ry="6.01"/><rect class="cls-61" x="121.51" y="85.32" width="23.49" height="31.43" rx="6.01" ry="6.01"/><rect class="cls-62" x="121.48" y="85.34" width="23.49" height="31.43" rx="6.01" ry="6.01"/><rect class="cls-63" x="121.46" y="85.36" width="23.49" height="31.43" rx="6.01" ry="6.01"/><rect class="cls-64" x="121.44" y="85.38" width="23.49" height="31.43" rx="6.01" ry="6.01"/><rect class="cls-65" x="121.41" y="85.4" width="23.49" height="31.43" rx="6.01" ry="6.01"/><rect class="cls-66" x="121.39" y="85.42" width="23.49" height="31.43" rx="6.01" ry="6.01"/><rect class="cls-67" x="121.36" y="85.44" width="23.49" height="31.43" rx="6.01" ry="6.01"/><rect class="cls-68" x="121.34" y="85.45" width="23.49" height="31.43" rx="6.01" ry="6.01"/><rect class="cls-69" x="121.32" y="85.47" width="23.49" height="31.43" rx="6.01" ry="6.01"/><rect class="cls-70" x="121.29" y="85.49" width="23.49" height="31.43" rx="6.01" ry="6.01"/><rect class="cls-71" x="121.27" y="85.51" width="23.49" height="31.43" rx="6.01" ry="6.01"/><rect class="cls-72" x="121.25" y="85.53" width="23.49" height="31.43" rx="6.01" ry="6.01"/><rect class="cls-73" x="121.22" y="85.55" width="23.49" height="31.43" rx="6.01" ry="6.01"/><rect class="cls-74" x="121.2" y="85.57" width="23.49" height="31.43" rx="6.01" ry="6.01"/><rect class="cls-75" x="121.18" y="85.58" width="23.49" height="31.43" rx="6.01" ry="6.01"/><rect class="cls-76" x="121.15" y="85.6" width="23.49" height="31.43" rx="6.01" ry="6.01"/><rect class="cls-77" x="121.13" y="85.62" width="23.49" height="31.43" rx="6.01" ry="6.01"/><circle class="cls-78" cx="126.57" cy="93.48" r="2.23"/><circle class="cls-79" cx="126.55" cy="93.46" r="2.23"/><circle class="cls-80" cx="126.54" cy="93.45" r="2.23"/><circle class="cls-81" cx="126.52" cy="93.44" r="2.23"/><circle class="cls-82" cx="126.51" cy="93.42" r="2.23"/><circle class="cls-83" cx="126.49" cy="93.41" r="2.23"/><circle class="cls-84" cx="126.48" cy="93.4" r="2.23"/><circle class="cls-85" cx="126.46" cy="93.38" r="2.23"/><circle class="cls-86" cx="126.45" cy="93.37" r="2.23"/><circle class="cls-87" cx="126.43" cy="93.36" r="2.23"/><circle class="cls-88" cx="126.41" cy="93.34" r="2.23"/><circle class="cls-89" cx="126.4" cy="93.33" r="2.23"/><circle class="cls-90" cx="126.38" cy="93.32" r="2.23"/><circle class="cls-91" cx="126.37" cy="93.3" r="2.23"/><circle class="cls-92" cx="126.35" cy="93.29" r="2.23"/><circle class="cls-93" cx="126.34" cy="93.28" r="2.23"/><circle class="cls-94" cx="126.32" cy="93.26" r="2.23"/><circle class="cls-95" cx="126.31" cy="93.25" r="2.23"/><circle class="cls-96" cx="126.29" cy="93.24" r="2.23"/><circle class="cls-97" cx="126.28" cy="93.22" r="2.23"/><circle class="cls-98" cx="126.26" cy="93.21" r="2.23"/><circle class="cls-99" cx="126.25" cy="93.2" r="2.23"/><circle class="cls-100" cx="126.23" cy="93.18" r="2.23"/><circle class="cls-101" cx="126.22" cy="93.17" r="2.23"/><circle class="cls-102" cx="126.2" cy="93.16" r="2.23"/><circle class="cls-103" cx="126.19" cy="93.14" r="2.23"/><circle class="cls-104" cx="126.17" cy="93.13" r="2.23"/><circle class="cls-105" cx="126.16" cy="93.12" r="2.23"/><circle class="cls-106" cx="126.14" cy="93.1" r="2.23"/><circle class="cls-107" cx="126.13" cy="93.09" r="2.23"/><circle class="cls-108" cx="126.11" cy="93.08" r="2.23"/><circle class="cls-109" cx="126.1" cy="93.06" r="2.23"/><circle class="cls-110" cx="126.08" cy="93.05" r="2.23"/><circle class="cls-111" cx="126.07" cy="93.04" r="2.23"/><circle class="cls-112" cx="126.05" cy="93.02" r="2.23"/><circle class="cls-113" cx="126.04" cy="93.01" r="2.23"/><circle class="cls-114" cx="126.02" cy="93" r="2.23"/><circle class="cls-115" cx="126" cy="92.98" r="2.23"/><circle class="cls-78" cx="126.57" cy="105.58" r="2.23"/><circle class="cls-79" cx="126.55" cy="105.57" r="2.23"/><circle class="cls-80" cx="126.54" cy="105.56" r="2.23"/><circle class="cls-81" cx="126.52" cy="105.54" r="2.23"/><circle class="cls-82" cx="126.51" cy="105.53" r="2.23"/><circle class="cls-83" cx="126.49" cy="105.52" r="2.23"/><circle class="cls-84" cx="126.48" cy="105.5" r="2.23"/><circle class="cls-85" cx="126.46" cy="105.49" r="2.23"/><circle class="cls-86" cx="126.45" cy="105.48" r="2.23"/><circle class="cls-87" cx="126.43" cy="105.46" r="2.23"/><circle class="cls-88" cx="126.41" cy="105.45" r="2.23"/><circle class="cls-89" cx="126.4" cy="105.44" r="2.23"/><circle class="cls-90" cx="126.38" cy="105.42" r="2.23"/><circle class="cls-91" cx="126.37" cy="105.41" r="2.23"/><circle class="cls-92" cx="126.35" cy="105.4" r="2.23"/><circle class="cls-93" cx="126.34" cy="105.38" r="2.23"/><circle class="cls-94" cx="126.32" cy="105.37" r="2.23"/><circle class="cls-95" cx="126.31" cy="105.36" r="2.23"/><circle class="cls-96" cx="126.29" cy="105.34" r="2.23"/><circle class="cls-97" cx="126.28" cy="105.33" r="2.23"/><circle class="cls-98" cx="126.26" cy="105.32" r="2.23"/><circle class="cls-99" cx="126.25" cy="105.3" r="2.23"/><circle class="cls-100" cx="126.23" cy="105.29" r="2.23"/><circle class="cls-101" cx="126.22" cy="105.28" r="2.23"/><circle class="cls-102" cx="126.2" cy="105.26" r="2.23"/><circle class="cls-103" cx="126.19" cy="105.25" r="2.23"/><circle class="cls-104" cx="126.17" cy="105.24" r="2.23"/><circle class="cls-105" cx="126.16" cy="105.22" r="2.23"/><circle class="cls-106" cx="126.14" cy="105.21" r="2.23"/><circle class="cls-107" cx="126.13" cy="105.2" r="2.23"/><circle class="cls-108" cx="126.11" cy="105.18" r="2.23"/><circle class="cls-109" cx="126.1" cy="105.17" r="2.23"/><circle class="cls-110" cx="126.08" cy="105.16" r="2.23"/><circle class="cls-111" cx="126.07" cy="105.14" r="2.23"/><circle class="cls-112" cx="126.05" cy="105.13" r="2.23"/><circle class="cls-113" cx="126.04" cy="105.12" r="2.23"/><circle class="cls-114" cx="126.02" cy="105.1" r="2.23"/><circle class="cls-115" cx="126" cy="105.09" r="2.23"/><circle class="cls-78" cx="126.57" cy="99.53" r="2.23"/><circle class="cls-79" cx="126.55" cy="99.52" r="2.23"/><circle class="cls-80" cx="126.54" cy="99.5" r="2.23"/><circle class="cls-81" cx="126.52" cy="99.49" r="2.23"/><circle class="cls-82" cx="126.51" cy="99.48" r="2.23"/><circle class="cls-83" cx="126.49" cy="99.46" r="2.23"/><circle class="cls-84" cx="126.48" cy="99.45" r="2.23"/><circle class="cls-85" cx="126.46" cy="99.44" r="2.23"/><circle class="cls-86" cx="126.45" cy="99.42" r="2.23"/><circle class="cls-87" cx="126.43" cy="99.41" r="2.23"/><circle class="cls-88" cx="126.41" cy="99.4" r="2.23"/><circle class="cls-89" cx="126.4" cy="99.38" r="2.23"/><circle class="cls-90" cx="126.38" cy="99.37" r="2.23"/><circle class="cls-91" cx="126.37" cy="99.36" r="2.23"/><circle class="cls-92" cx="126.35" cy="99.34" r="2.23"/><circle class="cls-93" cx="126.34" cy="99.33" r="2.23"/><circle class="cls-94" cx="126.32" cy="99.32" r="2.23"/><circle class="cls-95" cx="126.31" cy="99.3" r="2.23"/><circle class="cls-96" cx="126.29" cy="99.29" r="2.23"/><circle class="cls-97" cx="126.28" cy="99.28" r="2.23"/><circle class="cls-98" cx="126.26" cy="99.26" r="2.23"/><circle class="cls-99" cx="126.25" cy="99.25" r="2.23"/><circle class="cls-100" cx="126.23" cy="99.24" r="2.23"/><circle class="cls-101" cx="126.22" cy="99.22" r="2.23"/><circle class="cls-102" cx="126.2" cy="99.21" r="2.23"/><circle class="cls-103" cx="126.19" cy="99.2" r="2.23"/><circle class="cls-104" cx="126.17" cy="99.18" r="2.23"/><circle class="cls-105" cx="126.16" cy="99.17" r="2.23"/><circle class="cls-106" cx="126.14" cy="99.16" r="2.23"/><circle class="cls-107" cx="126.13" cy="99.14" r="2.23"/><circle class="cls-108" cx="126.11" cy="99.13" r="2.23"/><circle class="cls-109" cx="126.1" cy="99.12" r="2.23"/><circle class="cls-110" cx="126.08" cy="99.1" r="2.23"/><circle class="cls-111" cx="126.07" cy="99.09" r="2.23"/><circle class="cls-112" cx="126.05" cy="99.08" r="2.23"/><circle class="cls-113" cx="126.04" cy="99.06" r="2.23"/><circle class="cls-114" cx="126.02" cy="99.05" r="2.23"/><circle class="cls-115" cx="126" cy="99.04" r="2.23"/><rect class="cls-78" x="130.72" y="91.24" width="12.8" height="4.47" rx="2.23" ry="2.23"/><rect class="cls-116" x="130.71" y="91.24" width="12.8" height="4.47" rx="2.23" ry="2.23"/><rect class="cls-117" x="130.7" y="91.23" width="12.8" height="4.47" rx="2.23" ry="2.23"/><rect class="cls-118" x="130.69" y="91.23" width="12.8" height="4.47" rx="2.23" ry="2.23"/><rect class="cls-119" x="130.67" y="91.22" width="12.8" height="4.47" rx="2.23" ry="2.23"/><rect class="cls-120" x="130.66" y="91.22" width="12.8" height="4.47" rx="2.23" ry="2.23"/><rect class="cls-121" x="130.65" y="91.21" width="12.8" height="4.47" rx="2.23" ry="2.23"/><rect class="cls-122" x="130.64" y="91.2" width="12.8" height="4.47" rx="2.23" ry="2.23"/><rect class="cls-123" x="130.63" y="91.2" width="12.8" height="4.47" rx="2.23" ry="2.23"/><rect class="cls-124" x="130.61" y="91.19" width="12.8" height="4.47" rx="2.23" ry="2.23"/><rect class="cls-125" x="130.6" y="91.19" width="12.8" height="4.47" rx="2.23" ry="2.23"/><rect class="cls-126" x="130.59" y="91.18" width="12.8" height="4.47" rx="2.23" ry="2.23"/><rect class="cls-127" x="130.58" y="91.18" width="12.8" height="4.47" rx="2.23" ry="2.23"/><rect class="cls-128" x="130.56" y="91.17" width="12.8" height="4.47" rx="2.23" ry="2.23"/><rect class="cls-129" x="130.55" y="91.16" width="12.8" height="4.47" rx="2.23" ry="2.23"/><rect class="cls-130" x="130.54" y="91.16" width="12.8" height="4.47" rx="2.23" ry="2.23"/><rect class="cls-131" x="130.53" y="91.15" width="12.8" height="4.47" rx="2.23" ry="2.23"/><rect class="cls-132" x="130.52" y="91.15" width="12.8" height="4.47" rx="2.23" ry="2.23"/><rect class="cls-133" x="130.5" y="91.14" width="12.8" height="4.47" rx="2.23" ry="2.23"/><rect class="cls-134" x="130.49" y="91.14" width="12.8" height="4.47" rx="2.23" ry="2.23"/><rect class="cls-135" x="130.48" y="91.13" width="12.8" height="4.47" rx="2.23" ry="2.23"/><rect class="cls-136" x="130.47" y="91.12" width="12.8" height="4.47" rx="2.23" ry="2.23"/><rect class="cls-137" x="130.45" y="91.12" width="12.8" height="4.47" rx="2.23" ry="2.23"/><rect class="cls-138" x="130.44" y="91.11" width="12.8" height="4.47" rx="2.23" ry="2.23"/><rect class="cls-139" x="130.43" y="91.11" width="12.8" height="4.47" rx="2.23" ry="2.23"/><rect class="cls-140" x="130.42" y="91.1" width="12.8" height="4.47" rx="2.23" ry="2.23"/><rect class="cls-141" x="130.41" y="91.09" width="12.8" height="4.47" rx="2.23" ry="2.23"/><rect class="cls-142" x="130.39" y="91.09" width="12.8" height="4.47" rx="2.23" ry="2.23"/><rect class="cls-143" x="130.38" y="91.08" width="12.8" height="4.47" rx="2.23" ry="2.23"/><rect class="cls-144" x="130.37" y="91.08" width="12.8" height="4.47" rx="2.23" ry="2.23"/><rect class="cls-145" x="130.36" y="91.07" width="12.8" height="4.47" rx="2.23" ry="2.23"/><rect class="cls-146" x="130.34" y="91.07" width="12.8" height="4.47" rx="2.23" ry="2.23"/><rect class="cls-147" x="130.33" y="91.06" width="12.8" height="4.47" rx="2.23" ry="2.23"/><rect class="cls-148" x="130.32" y="91.05" width="12.8" height="4.47" rx="2.23" ry="2.23"/><rect class="cls-149" x="130.31" y="91.05" width="12.8" height="4.47" rx="2.23" ry="2.23"/><rect class="cls-150" x="130.29" y="91.04" width="12.8" height="4.47" rx="2.23" ry="2.23"/><rect class="cls-151" x="130.28" y="91.04" width="12.8" height="4.47" rx="2.23" ry="2.23"/><rect class="cls-152" x="130.27" y="91.03" width="12.8" height="4.47" rx="2.23" ry="2.23"/><rect class="cls-153" x="130.26" y="91.03" width="12.8" height="4.47" rx="2.23" ry="2.23"/><rect class="cls-154" x="130.25" y="91.02" width="12.8" height="4.47" rx="2.23" ry="2.23"/><rect class="cls-155" x="130.23" y="91.01" width="12.8" height="4.47" rx="2.23" ry="2.23"/><rect class="cls-156" x="130.22" y="91.01" width="12.8" height="4.47" rx="2.23" ry="2.23"/><rect class="cls-157" x="130.21" y="91" width="12.8" height="4.47" rx="2.23" ry="2.23"/><rect class="cls-158" x="130.2" y="91" width="12.8" height="4.47" rx="2.23" ry="2.23"/><rect class="cls-159" x="130.18" y="90.99" width="12.8" height="4.47" rx="2.23" ry="2.23"/><rect class="cls-160" x="130.17" y="90.99" width="12.8" height="4.47" rx="2.23" ry="2.23"/><rect class="cls-161" x="130.16" y="90.98" width="12.8" height="4.47" rx="2.23" ry="2.23"/><rect class="cls-162" x="130.15" y="90.97" width="12.8" height="4.47" rx="2.23" ry="2.23"/><rect class="cls-163" x="130.14" y="90.97" width="12.8" height="4.47" rx="2.23" ry="2.23"/><rect class="cls-164" x="130.12" y="90.96" width="12.8" height="4.47" rx="2.23" ry="2.23"/><rect class="cls-165" x="130.11" y="90.96" width="12.8" height="4.47" rx="2.23" ry="2.23"/><rect class="cls-166" x="130.1" y="90.95" width="12.8" height="4.47" rx="2.23" ry="2.23"/><rect class="cls-167" x="130.09" y="90.95" width="12.8" height="4.47" rx="2.23" ry="2.23"/><rect class="cls-168" x="130.07" y="90.94" width="12.8" height="4.47" rx="2.23" ry="2.23"/><rect class="cls-169" x="130.06" y="90.93" width="12.8" height="4.47" rx="2.23" ry="2.23"/><rect class="cls-170" x="130.05" y="90.93" width="12.8" height="4.47" rx="2.23" ry="2.23"/><rect class="cls-171" x="130.04" y="90.92" width="12.8" height="4.47" rx="2.23" ry="2.23"/><rect class="cls-172" x="130.03" y="90.92" width="12.8" height="4.47" rx="2.23" ry="2.23"/><rect class="cls-173" x="130.01" y="90.91" width="12.8" height="4.47" rx="2.23" ry="2.23"/><rect class="cls-174" x="130" y="90.91" width="12.8" height="4.47" rx="2.23" ry="2.23"/><rect class="cls-175" x="129.99" y="90.9" width="12.8" height="4.47" rx="2.23" ry="2.23"/><rect class="cls-176" x="129.98" y="90.89" width="12.8" height="4.47" rx="2.23" ry="2.23"/><rect class="cls-177" x="129.96" y="90.89" width="12.8" height="4.47" rx="2.23" ry="2.23"/><rect class="cls-178" x="129.95" y="90.88" width="12.8" height="4.47" rx="2.23" ry="2.23"/><rect class="cls-179" x="129.94" y="90.88" width="12.8" height="4.47" rx="2.23" ry="2.23"/><rect class="cls-180" x="129.93" y="90.87" width="12.8" height="4.47" rx="2.23" ry="2.23"/><rect class="cls-181" x="129.91" y="90.86" width="12.8" height="4.47" rx="2.23" ry="2.23"/><rect class="cls-182" x="129.9" y="90.86" width="12.8" height="4.47" rx="2.23" ry="2.23"/><rect class="cls-183" x="129.89" y="90.85" width="12.8" height="4.47" rx="2.23" ry="2.23"/><rect class="cls-184" x="129.88" y="90.85" width="12.8" height="4.47" rx="2.23" ry="2.23"/><rect class="cls-185" x="129.87" y="90.84" width="12.8" height="4.47" rx="2.23" ry="2.23"/><rect class="cls-186" x="129.85" y="90.84" width="12.8" height="4.47" rx="2.23" ry="2.23"/><rect class="cls-187" x="129.84" y="90.83" width="12.8" height="4.47" rx="2.23" ry="2.23"/><rect class="cls-188" x="129.83" y="90.82" width="12.8" height="4.47" rx="2.23" ry="2.23"/><rect class="cls-189" x="129.82" y="90.82" width="12.8" height="4.47" rx="2.23" ry="2.23"/><rect class="cls-190" x="129.8" y="90.81" width="12.8" height="4.47" rx="2.23" ry="2.23"/><rect class="cls-191" x="129.79" y="90.81" width="12.8" height="4.47" rx="2.23" ry="2.23"/><rect class="cls-192" x="129.78" y="90.8" width="12.8" height="4.47" rx="2.23" ry="2.23"/><rect class="cls-193" x="129.77" y="90.8" width="12.8" height="4.47" rx="2.23" ry="2.23"/><rect class="cls-194" x="129.76" y="90.79" width="12.8" height="4.47" rx="2.23" ry="2.23"/><rect class="cls-195" x="129.74" y="90.78" width="12.8" height="4.47" rx="2.23" ry="2.23"/><rect class="cls-196" x="129.73" y="90.78" width="12.8" height="4.47" rx="2.23" ry="2.23"/><rect class="cls-197" x="129.72" y="90.77" width="12.8" height="4.47" rx="2.23" ry="2.23"/><rect class="cls-198" x="129.71" y="90.77" width="12.8" height="4.47" rx="2.23" ry="2.23"/><rect class="cls-199" x="129.69" y="90.76" width="12.8" height="4.47" rx="2.23" ry="2.23"/><rect class="cls-200" x="129.68" y="90.76" width="12.8" height="4.47" rx="2.23" ry="2.23"/><rect class="cls-201" x="129.67" y="90.75" width="12.8" height="4.47" rx="2.23" ry="2.23"/><rect class="cls-202" x="143.98" y="119.36" width="12.85" height="20.7" rx="2" ry="2"/><rect class="cls-61" x="147.91" y="120.2" width="1.98" height="19.01" rx="0.99" ry="0.99"/><rect class="cls-61" x="153.94" y="120.2" width="1.98" height="19.01" rx="0.99" ry="0.99"/><rect class="cls-61" x="150.92" y="120.2" width="1.98" height="19.01" rx="0.99" ry="0.99"/><rect class="cls-61" x="144.89" y="120.2" width="1.98" height="19.01" rx="0.99" ry="0.99"/><path class="cls-203" d="M151,116.71c-4.4-.07-8,1.85-8,4.29s15.9,2.71,15.93.27S155.35,116.79,151,116.71Z"/><path class="cls-203" d="M150.87,143.86c4.4.08,8-2,8-4.55S143,136.44,143,139,146.48,143.79,150.87,143.86Z"/><path class="cls-204" d="M150.62,116.47c-4.4-.06-8,1.87-8,4.31s15.91,2.66,15.92.22S155,116.53,150.62,116.47Z"/><path class="cls-204" d="M150.63,143.62c4.4.06,8-2,8-4.58s-15.91-2.81-15.92-.22S146.24,143.56,150.63,143.62Z"/><path class="cls-205" d="M150.29,116.23c-4.4,0-8,1.9-8,4.34s15.92,2.6,15.92.16S154.69,116.28,150.29,116.23Z"/><path class="cls-205" d="M150.39,143.38c4.4.05,8-2,8-4.61s-15.92-2.75-15.93-.16S146,143.34,150.39,143.38Z"/><path class="cls-203" d="M157.21,181.47h6.08a7.09,7.09,0,0,0,7.07-7.08V156.2a7.1,7.1,0,0,0-7.07-7.08H157v32.14A.21.21,0,0,0,157.21,181.47Z"/><path class="cls-206" d="M157,149.14v32.14a.21.21,0,0,0,.21.21h6.08a7.09,7.09,0,0,0,7.07-7.07v-18.2a7.1,7.1,0,0,0-7.07-7.08Z"/><path class="cls-207" d="M157,149.17v32.14a.21.21,0,0,0,.2.21h6.08a7.11,7.11,0,0,0,7.08-7.08v-18.2a7.1,7.1,0,0,0-7.08-7.07Z"/><path class="cls-208" d="M157,149.19v32.14a.22.22,0,0,0,.19.21h6.09a7.1,7.1,0,0,0,7.08-7.08V156.27a7.09,7.09,0,0,0-7.08-7.08Z"/><path class="cls-209" d="M156.93,149.21v32.14a.22.22,0,0,0,.19.21h6.1a7.09,7.09,0,0,0,7.07-7.08V156.29a7.1,7.1,0,0,0-7.07-7.08Z"/><path class="cls-210" d="M156.92,149.23v32.14a.21.21,0,0,0,.18.21h6.1a7.1,7.1,0,0,0,7.08-7.07v-18.2a7.11,7.11,0,0,0-7.08-7.08Z"/><path class="cls-211" d="M156.9,149.26v32.13c0,.1.08.22.18.22h6.1a7.11,7.11,0,0,0,7.08-7.08v-18.2a7.1,7.1,0,0,0-7.08-7.07Z"/><path class="cls-212" d="M156.88,149.28v32.13c0,.1.08.22.18.22h6.11a7.1,7.1,0,0,0,7.07-7.08v-18.2a7.09,7.09,0,0,0-7.07-7.07Z"/><path class="cls-213" d="M156.86,149.3v32.13c0,.1.08.22.18.22h6.11a7.1,7.1,0,0,0,7.08-7.08V156.38a7.1,7.1,0,0,0-7.08-7.08Z"/><path class="cls-214" d="M156.85,149.32v32.13c0,.1.07.22.17.22h6.11a7.1,7.1,0,0,0,7.08-7.07V156.4a7.11,7.11,0,0,0-7.08-7.08Z"/><path class="cls-215" d="M156.83,149.35v32.12c0,.09.07.22.17.22h6.11a7.09,7.09,0,0,0,7.08-7.07v-18.2a7.09,7.09,0,0,0-7.08-7.07Z"/><path class="cls-216" d="M156.81,149.37v32.12c0,.09.08.23.16.23h6.13a7.1,7.1,0,0,0,7.07-7.08v-18.2a7.09,7.09,0,0,0-7.07-7.07Z"/><path class="cls-217" d="M156.8,149.39v32.13c0,.08.07.22.15.22h6.13a7.1,7.1,0,0,0,7.08-7.08V156.47a7.1,7.1,0,0,0-7.08-7.08Z"/><path class="cls-218" d="M156.78,149.41v32.13c0,.08.07.22.15.22h6.13a7.09,7.09,0,0,0,7.08-7.07v-18.2a7.1,7.1,0,0,0-7.08-7.08Z"/><path class="cls-219" d="M156.76,149.44v32.12c0,.08.07.22.15.22h6.14a7.09,7.09,0,0,0,7.07-7.07v-18.2a7.09,7.09,0,0,0-7.07-7.07Z"/><path class="cls-220" d="M156.74,149.46v32.12c0,.08.07.23.15.23H163a7.11,7.11,0,0,0,7.08-7.08v-18.2a7.1,7.1,0,0,0-7.08-7.07Z"/><path class="cls-221" d="M156.73,149.48V181.6c0,.08.06.23.14.23H163a7.11,7.11,0,0,0,7.08-7.08V156.56a7.1,7.1,0,0,0-7.08-7.08Z"/><path class="cls-222" d="M156.71,149.5v32.12c0,.08.06.23.14.23H163a7.09,7.09,0,0,0,7.08-7.07v-18.2A7.1,7.1,0,0,0,163,149.5Z"/><path class="cls-223" d="M156.69,149.52v32.12c0,.07.06.23.14.23H163a7.09,7.09,0,0,0,7.07-7.07V156.6a7.1,7.1,0,0,0-7.07-7.08Z"/><path class="cls-224" d="M156.68,149.55v32.11c0,.07,0,.24.12.24H163a7.11,7.11,0,0,0,7.08-7.08v-18.2a7.1,7.1,0,0,0-7.08-7.07Z"/><path class="cls-225" d="M156.66,149.57v32.11c0,.07.05.24.12.24h6.16a7.1,7.1,0,0,0,7.08-7.08V156.65a7.09,7.09,0,0,0-7.08-7.08Z"/><path class="cls-226" d="M156.64,149.59V181.7c0,.07.06.24.12.24h6.17a7.09,7.09,0,0,0,7.07-7.08V156.67a7.1,7.1,0,0,0-7.07-7.08Z"/><path class="cls-227" d="M156.62,149.61v32.12c0,.06.06.23.12.23h6.17a7.1,7.1,0,0,0,7.08-7.07v-18.2a7.11,7.11,0,0,0-7.08-7.08Z"/><path class="cls-228" d="M156.61,149.64v32.11c0,.06,0,.24.11.24h6.17a7.11,7.11,0,0,0,7.08-7.08v-18.2a7.1,7.1,0,0,0-7.08-7.07Z"/><path class="cls-229" d="M156.59,149.66v32.11c0,.06,0,.24.11.24h6.18a7.1,7.1,0,0,0,7.07-7.08V156.74a7.09,7.09,0,0,0-7.07-7.08Z"/><path class="cls-230" d="M156.57,149.68v32.11c0,.06.05.24.11.24h6.18a7.09,7.09,0,0,0,7.07-7.08V156.76a7.1,7.1,0,0,0-7.07-7.08Z"/><path class="cls-230" d="M156.56,149.7v32.11c0,.05,0,.24.1.24h6.18a7.1,7.1,0,0,0,7.08-7.07v-18.2a7.11,7.11,0,0,0-7.08-7.08Z"/><path class="cls-231" d="M156.54,149.73v32.1s0,.25.09.25h6.19A7.1,7.1,0,0,0,169.9,175V156.8a7.09,7.09,0,0,0-7.08-7.07Z"/><path class="cls-232" d="M156.52,149.75v32.1c0,.05,0,.25.09.25h6.2a7.1,7.1,0,0,0,7.07-7.08V156.83a7.09,7.09,0,0,0-7.07-7.08Z"/><path class="cls-233" d="M156.51,149.77v32.1s0,.25.08.25h6.2a7.1,7.1,0,0,0,7.08-7.08V156.85a7.11,7.11,0,0,0-7.08-7.08Z"/><path class="cls-234" d="M156.49,149.79v32.1c0,.05,0,.25.08.25h6.2a7.1,7.1,0,0,0,7.08-7.07v-18.2a7.11,7.11,0,0,0-7.08-7.08Z"/><path class="cls-235" d="M156.47,149.82v32.09c0,.05,0,.26.08.26h6.21a7.1,7.1,0,0,0,7.07-7.08v-18.2a7.09,7.09,0,0,0-7.07-7.07Z"/><path class="cls-236" d="M156.45,149.84v32.09s0,.26.08.26h6.21a7.1,7.1,0,0,0,7.07-7.08V156.92a7.09,7.09,0,0,0-7.07-7.08Z"/><path class="cls-237" d="M156.44,149.86V182s0,.25.07.25h6.21a7.1,7.1,0,0,0,7.08-7.08V156.94a7.11,7.11,0,0,0-7.08-7.08Z"/><path class="cls-238" d="M156.42,149.88V182s0,.25.07.25h6.21a7.09,7.09,0,0,0,7.08-7.07V157a7.1,7.1,0,0,0-7.08-7.08Z"/><path class="cls-239" d="M156.4,149.91V182s0,.26.06.26h6.23a7.1,7.1,0,0,0,7.07-7.08V157a7.09,7.09,0,0,0-7.07-7.07Z"/><path class="cls-240" d="M156.39,149.93V182s0,.26.05.26h6.23a7.11,7.11,0,0,0,7.08-7.08V157a7.1,7.1,0,0,0-7.08-7.07Z"/><path class="cls-241" d="M156.37,150V182s0,.26,0,.26h6.23a7.09,7.09,0,0,0,7.08-7.08V157a7.1,7.1,0,0,0-7.08-7.08Z"/><path class="cls-242" d="M156.35,150v32.09s0,.26.05.26h6.24a7.09,7.09,0,0,0,7.07-7.07v-18.2a7.1,7.1,0,0,0-7.07-7.08Z"/><path class="cls-243" d="M156.33,150v32.08s0,.26,0,.26h6.24a7.1,7.1,0,0,0,7.08-7.07v-18.2a7.1,7.1,0,0,0-7.08-7.07Z"/><path class="cls-244" d="M156.32,150V182.1a1,1,0,0,0,0,.27h6.24a7.11,7.11,0,0,0,7.08-7.08v-18.2A7.1,7.1,0,0,0,162.6,150Z"/><path class="cls-245" d="M156.3,150v32.08a1.1,1.1,0,0,0,0,.27h6.24a7.09,7.09,0,0,0,7.08-7.08V157.12a7.09,7.09,0,0,0-7.08-7.08Z"/><path class="cls-246" d="M156.28,150.06v32.08a1.1,1.1,0,0,0,0,.27h6.25a7.09,7.09,0,0,0,7.07-7.07v-18.2a7.1,7.1,0,0,0-7.07-7.08Z"/><path class="cls-247" d="M156.27,150.09v32.08a2.11,2.11,0,0,0,0,.26h6.26a7.1,7.1,0,0,0,7.08-7.07v-18.2a7.1,7.1,0,0,0-7.08-7.07Z"/><path class="cls-248" d="M156.25,150.11v32.08a2.28,2.28,0,0,0,0,.27h6.26a7.1,7.1,0,0,0,7.08-7.08v-18.2a7.09,7.09,0,0,0-7.08-7.07Z"/><path class="cls-249" d="M156.23,150.13v32.08a2.28,2.28,0,0,0,0,.27h6.27a7.1,7.1,0,0,0,7.07-7.08V157.21a7.09,7.09,0,0,0-7.07-7.08Z"/><path class="cls-250" d="M156.21,150.15v32.08a2.28,2.28,0,0,0,0,.27h6.27a7.1,7.1,0,0,0,7.08-7.07v-18.2a7.11,7.11,0,0,0-7.08-7.08Z"/><path class="cls-251" d="M156.2,150.17v32.08a2.35,2.35,0,0,0,0,.27h6.27a7.1,7.1,0,0,0,7.08-7.07v-18.2a7.11,7.11,0,0,0-7.08-7.08Z"/><path class="cls-252" d="M156.18,150.2v32.07a2.53,2.53,0,0,0,0,.28h6.27a7.1,7.1,0,0,0,7.08-7.08v-18.2a7.09,7.09,0,0,0-7.08-7.07Z"/><path class="cls-253" d="M156.16,150.22v32.35h6.28a7.1,7.1,0,0,0,7.07-7.08V157.3a7.09,7.09,0,0,0-7.07-7.08Z"/><path class="cls-254" d="M156.15,182.59h6.28a7.1,7.1,0,0,0,7.08-7.08V157.32a7.11,7.11,0,0,0-7.08-7.08h-6.28Z"/><path class="cls-255" d="M150.56,81.82c.24-6.8-2.55-9-5.8-9s-7.08,2.49-5.87,11"/><line class="cls-255" x1="150.56" y1="81.82" x2="150.52" y2="116.91"/></svg>